<svg width="348" height="376" viewBox="0 0 348 376" fill="none" xmlns="http://www.w3.org/2000/svg">
<circle cx="134" cy="92" r="92" fill="#FA41CC"/>
<ellipse cx="289.5" cy="92" rx="27.5" ry="32" fill="#ACDAFF"/>
<ellipse cx="56" cy="235.5" rx="56" ry="51.5" fill="#ACDAFF"/>
<ellipse cx="286.5" cy="223" rx="61.5" ry="64" fill="#6920B0"/>
<path d="M61.9813 375H47.8587V324.995H53.4907C54.9982 324.995 57.2738 324.938 60.3173 324.824C63.3609 324.682 65.864 324.611 67.8267 324.611C73.3449 324.611 77.5262 326.076 80.3707 329.005C83.2151 331.935 84.6373 336.33 84.6373 342.189C84.6373 345.716 84.168 348.931 83.2293 351.832C82.3191 354.705 81.0818 357.066 79.5173 358.915C77.9529 360.764 76.1751 362.186 74.184 363.181C72.1929 364.177 70.088 364.675 67.8693 364.675C67.5849 364.675 67.2862 364.675 66.9733 364.675C66.6889 364.675 66.4187 364.675 66.1627 364.675C65.9351 364.646 65.6507 364.632 65.3093 364.632C64.9964 364.604 64.7404 364.589 64.5413 364.589C64.3707 364.561 64.1147 364.547 63.7733 364.547C63.4604 364.518 63.2471 364.504 63.1333 364.504C63.0196 364.504 62.8062 364.49 62.4933 364.461C62.1804 364.433 62.0098 364.419 61.9813 364.419V375ZM70.6427 340.312C70.6427 338.207 70.0738 336.5 68.936 335.192C67.7982 333.884 66.1627 333.229 64.0293 333.229H61.9813V355.416H63.56C65.8071 355.416 67.5422 354.662 68.7653 353.155C70.0169 351.647 70.6427 349.471 70.6427 346.627V340.312ZM112.392 375L110.472 367.021H98.3547L96.7333 375H84.1893L97.2027 328.451L96.1787 324.995H113.8L128.051 375H112.392ZM103.859 339.672L100.104 358.317H108.381L103.859 339.672ZM143.771 358.36V375H129.606V324.995H135.238C136.603 324.995 138.637 324.938 141.339 324.824C144.041 324.682 146.274 324.611 148.038 324.611C154.182 324.611 158.761 325.962 161.776 328.664C164.82 331.366 166.342 335.505 166.342 341.08C166.342 344.38 165.616 347.309 164.166 349.869C162.743 352.429 160.852 354.463 158.491 355.971C159.771 356.284 160.866 357.009 161.776 358.147C162.715 359.284 163.44 360.636 163.952 362.2C164.464 363.736 164.905 365.3 165.275 366.893C165.673 368.458 166.114 370.008 166.598 371.544C167.11 373.08 167.664 374.232 168.262 375H152.518C152.205 374.602 151.963 373.492 151.792 371.672C151.622 369.823 151.38 367.619 151.067 365.059C150.783 362.47 150.37 360.308 149.83 358.573C149.773 358.573 149.702 358.573 149.616 358.573C149.076 358.573 148.493 358.573 147.867 358.573C147.27 358.545 146.743 358.516 146.288 358.488C145.833 358.46 145.35 358.431 144.838 358.403C144.354 358.374 143.999 358.36 143.771 358.36ZM143.771 350.424H145.136C145.847 350.424 146.445 350.396 146.928 350.339C147.412 350.282 147.938 350.182 148.507 350.04C149.104 349.869 149.588 349.613 149.958 349.272C150.356 348.931 150.726 348.49 151.067 347.949C151.408 347.409 151.664 346.712 151.835 345.859C152.006 345.005 152.091 344.01 152.091 342.872V339.501C152.091 337.027 151.437 335.306 150.128 334.339C148.848 333.343 146.999 332.845 144.582 332.845H143.771V350.424ZM178.92 375V336.301H168.936V324.995H203.325V336.301H193.341V375H178.92ZM216.282 375V359.384L202.117 324.995H218.287L222.682 337.88L225.626 348.419L228.058 337.88L231.386 324.995H244.101L231.599 359.128V375H216.282ZM264.062 375.896C261.132 375.896 258.529 375.612 256.254 375.043C254.007 374.474 252.158 373.706 250.707 372.739C249.285 371.772 248.104 370.577 247.166 369.155C246.255 367.704 245.615 366.182 245.246 364.589C244.876 362.996 244.691 361.233 244.691 359.299V324.995H259.88V357.379C259.88 360.991 260.25 363.48 260.99 364.845C261.758 366.182 262.867 366.851 264.318 366.851C265.114 366.851 265.811 366.723 266.408 366.467C267.006 366.182 267.56 365.713 268.072 365.059C268.584 364.376 268.968 363.409 269.224 362.157C269.509 360.877 269.651 359.327 269.651 357.507V324.995H283.134V359.555C283.134 361.46 282.963 363.181 282.622 364.717C282.309 366.253 281.711 367.747 280.83 369.197C279.976 370.62 278.839 371.814 277.416 372.781C276.023 373.72 274.188 374.474 271.912 375.043C269.665 375.612 267.048 375.896 264.062 375.896ZM302.981 375H288.859V324.995H294.491C295.998 324.995 298.274 324.938 301.317 324.824C304.361 324.682 306.864 324.611 308.827 324.611C314.345 324.611 318.526 326.076 321.371 329.005C324.215 331.935 325.637 336.33 325.637 342.189C325.637 345.716 325.168 348.931 324.229 351.832C323.319 354.705 322.082 357.066 320.517 358.915C318.953 360.764 317.175 362.186 315.184 363.181C313.193 364.177 311.088 364.675 308.869 364.675C308.585 364.675 308.286 364.675 307.973 364.675C307.689 364.675 307.419 364.675 307.163 364.675C306.935 364.646 306.651 364.632 306.309 364.632C305.996 364.604 305.74 364.589 305.541 364.589C305.371 364.561 305.115 364.547 304.773 364.547C304.46 364.518 304.247 364.504 304.133 364.504C304.02 364.504 303.806 364.49 303.493 364.461C303.18 364.433 303.01 364.419 302.981 364.419V375ZM311.643 340.312C311.643 338.207 311.074 336.5 309.936 335.192C308.798 333.884 307.163 333.229 305.029 333.229H302.981V355.416H304.56C306.807 355.416 308.542 354.662 309.765 353.155C311.017 351.647 311.643 349.471 311.643 346.627V340.312Z" fill="#6920B0"/>
</svg>
